# xmcd
#
# Track frame offsets:
#	150
#	10890
#	41414
#	73803
#	96127
#	113555
#	148730
#	174377
#	189174
#	208238
#
# Disc length: 3630 seconds
#
# Revision: 1
# Processed by: cddbd v1.5.2PL0 Copyright (c) Steve Scherf et al.
# Submitted via: audiograbber 1.83.01
#
DISCID=860e2c0a
DTITLE=Grateful Dead - 77-10-09 McNichols Sports Arena, Denver CO
DYEAR=1900
DGENRE=
TTITLE0=Tuning
TTITLE1=Minglewood Blues
TTITLE2=They Love Each Other
TTITLE3=Cassidy
TTITLE4=Dire Wolf
TTITLE5=Looks Like Rain
TTITLE6=Brown Eyed Women
TTITLE7=Lazy Lightning
TTITLE8=Supplication
TTITLE9=Sugaree
EXTD=
EXTT0=
EXTT1=
EXTT2=
EXTT3=
EXTT4=
EXTT5=
EXTT6=
EXTT7=
EXTT8=
EXTT9=
PLAYORDER=
